<svg xmlns="http://www.w3.org/2000/svg" version="1.1" xmlns:xlink="http://www.w3.org/1999/xlink" xmlns:svgjs="http://svgjs.dev/svgjs" width="1920" height="1080" preserveAspectRatio="none" viewBox="0 0 1920 1080"><g mask="url(&quot;#SvgjsMask1022&quot;)" fill="none"><rect width="1920" height="1080" x="0" y="0" fill="#0e2a47"></rect><path d="M1448.35 154.51 a91.04 91.04 0 1 0 182.08 0 a91.04 91.04 0 1 0 -182.08 0z" stroke="#e73635"></path><path d="M429.37 844.24L461.96 844.24L461.96 939.85L429.37 939.85z" fill="#037b0b"></path><path d="M673.58 45.35L712.68 45.35L712.68 84.45L673.58 84.45z" stroke="#037b0b"></path><path d="M1703.95 712.07L1811.32 712.07L1811.32 819.44L1703.95 819.44z" fill="#e73635"></path><path d="M903.67 795.93a103.3 103.3 0 1 0-35.74 203.48z" stroke="#e73635"></path><path d="M316.74 289.7L398.18 289.7L398.18 371.14L316.74 371.14z" fill="#d3b714"></path><path d="M768.72 636.48L828.1 636.48L828.1 661.48L768.72 661.48z" stroke="#037b0b"></path><path d="M377.74 586.05a103.85 103.85 0 1 0 80.4 191.51z" stroke="#e73635"></path><path d="M18.2 820.93L113.49 820.93L113.49 920.16L18.2 920.16z" fill="#d3b714"></path><path d="M180.41 528.31 a7.55 7.55 0 1 0 15.1 0 a7.55 7.55 0 1 0 -15.1 0z" stroke="#d3b714"></path><path d="M1658.69 339.21L1674.67 339.21L1674.67 418.88L1658.69 418.88z" fill="#037b0b"></path><path d="M1526.93 707.77L1616.82 707.77L1616.82 739.57L1526.93 739.57z" stroke="#e73635"></path><path d="M891.7 775.51L921.28 775.51L921.28 839.88L891.7 839.88z" fill="#d3b714"></path><path d="M1296.49 176.25 a37.37 37.37 0 1 0 74.74 0 a37.37 37.37 0 1 0 -74.74 0z" fill="#037b0b"></path><path d="M1230.8 396.92 a69.26 69.26 0 1 0 138.52 0 a69.26 69.26 0 1 0 -138.52 0z" stroke="#e73635"></path><path d="M772.35 593.81L772.77 593.81L772.77 662.14L772.35 662.14z" stroke="#e73635"></path><path d="M1020.4 733.9a90.71 90.71 0 1 0 178.76 30.96z" fill="#037b0b"></path><path d="M748.43 260.19L761.99 260.19L761.99 273.75L748.43 273.75z" stroke="#037b0b"></path><path d="M618.38 561.2 a103.56 103.56 0 1 0 207.12 0 a103.56 103.56 0 1 0 -207.12 0z" fill="#d3b714"></path><path d="M1550.52 971.36L1562.04 971.36L1562.04 1010.7L1550.52 1010.7z" stroke="#037b0b"></path><path d="M854.65 1029.66 a59.02 59.02 0 1 0 118.04 0 a59.02 59.02 0 1 0 -118.04 0z" fill="#e73635"></path><path d="M1539.66 299.98a99.79 99.79 0 1 0-66.25-188.26z" stroke="#037b0b"></path><path d="M1639.67 577.88a68.35 68.35 0 1 0-26.42 134.12z" stroke="#e73635"></path></g><defs><mask id="SvgjsMask1022"><rect width="1920" height="1080" fill="#ffffff"></rect></mask></defs></svg>